<svg width="100" height="100" viewBox="0 0 100 100" fill="none" xmlns="http://www.w3.org/2000/svg">
<path d="M61.0991 15.8784C62.6383 15.8784 63.8863 14.7152 63.8863 13.1757C63.8863 11.6361 62.6383 10.473 61.0991 10.473H46.9241V5.40541H61.0991C62.6383 5.40541 63.8863 4.24223 63.8863 2.7027C63.8863 1.16318 62.6383 0 61.0991 0H41.2933C38.4947 0 36.1133 2.26892 36.1133 5.06757V94.9324C36.1133 97.7311 38.4947 100 41.2933 100H61.0991C62.6383 100 63.8863 98.8368 63.8863 97.2973C63.8863 95.7578 62.6383 94.5946 61.0991 94.5946H46.9241V89.527H61.0991C62.6383 89.527 63.8863 88.3639 63.8863 86.8243C63.8863 85.2848 62.6383 84.1216 61.0991 84.1216H46.9241V79.0541H61.0991C62.6383 79.0541 63.8863 77.8909 63.8863 76.3514C63.8863 74.8118 62.6383 73.6487 61.0991 73.6487H46.9241V68.5811H61.0991C62.6383 68.5811 63.8863 67.4179 63.8863 65.8784C63.8863 64.3389 62.6383 63.1757 61.0991 63.1757H46.9241V58.1081H61.0991C62.6383 58.1081 63.8863 56.9449 63.8863 55.4054C63.8863 53.8659 62.6383 52.7027 61.0991 52.7027H46.9241V47.2973H61.0991C62.6383 47.2973 63.8863 46.1341 63.8863 44.5946C63.8863 43.0551 62.6383 41.8919 61.0991 41.8919H46.9241V36.8243H61.0991C62.6383 36.8243 63.8863 35.6611 63.8863 34.1216C63.8863 32.5821 62.6383 31.4189 61.0991 31.4189H46.9241V26.3514H61.0991C62.6383 26.3514 63.8863 25.1882 63.8863 23.6486C63.8863 22.1091 62.6383 20.9459 61.0991 20.9459H46.9241V15.8784H61.0991Z" fill="#443028"/>
</svg>
