<svg width="125" height="64" viewBox="0 0 125 64" fill="none" xmlns="http://www.w3.org/2000/svg">
<rect width="125" height="64" fill="#1E1E1E"/>
<path d="M-7617 -117C-7617 -118.105 -7616.1 -119 -7615 -119H2286C2287.1 -119 2288 -118.105 2288 -117V6915C2288 6916.1 2287.1 6917 2286 6917H-7615C-7616.1 6917 -7617 6916.1 -7617 6915V-117Z" fill="#444444"/>
<path d="M-7615 -119V-118H2286V-119V-120H-7615V-119ZM2288 -117H2287V6915H2288H2289V-117H2288ZM2286 6917V6916H-7615V6917V6918H2286V6917ZM-7617 6915H-7616V-117H-7617H-7618V6915H-7617ZM-7615 6917V6916C-7615.55 6916 -7616 6915.55 -7616 6915H-7617H-7618C-7618 6916.66 -7616.66 6918 -7615 6918V6917ZM2288 6915H2287C2287 6915.55 2286.55 6916 2286 6916V6917V6918C2287.66 6918 2289 6916.66 2289 6915H2288ZM2286 -119V-118C2286.55 -118 2287 -117.552 2287 -117H2288H2289C2289 -118.657 2287.66 -120 2286 -120V-119ZM-7615 -119V-120C-7616.66 -120 -7618 -118.657 -7618 -117H-7617H-7616C-7616 -117.552 -7615.55 -118 -7615 -118V-119Z" fill="white" fill-opacity="0.1"/>
<g clip-path="url(#clip0_7_4)">
<rect width="440" height="6282" transform="translate(-40 -19)" fill="#FAF9F8"/>
<mask id="path-3-outside-1_7_4" maskUnits="userSpaceOnUse" x="-40" y="-18" width="440" height="101" fill="black">
<rect fill="white" x="-40" y="-18" width="440" height="101"/>
<path d="M-40 -18H400V82H-40V-18Z"/>
</mask>
<path d="M-40 -18H400V82H-40V-18Z" fill="#FAF9F8"/>
<path d="M400 82V81H-40V82V83H400V82Z" fill="#443028" mask="url(#path-3-outside-1_7_4)"/>
<path d="M51.0753 0.86684C46.4398 1.74526 40.3861 5.70343 33.7715 12.191C29.5064 16.382 25.9398 20.6154 21.8758 26.3304L20.8492 27.7697L20.0343 27.9391C18.1081 28.3518 15.1871 28.6482 13.1128 28.6482C10.2341 28.6482 7.83171 27.7274 6.18071 25.9917C4.68846 24.4148 4.10637 22.6051 4.48737 20.7106C5.24938 16.943 9.03821 13.8209 15.293 11.7889C20.6587 10.0426 25.9716 9.51344 30.3213 10.286C31.9935 10.5824 32.9672 10.6141 33.4858 10.4024C34.2795 10.0744 34.5441 9.17478 34.0255 8.56094C33.5281 7.96827 32.3004 7.59785 29.9933 7.32269C25.453 6.79352 18.6373 7.59785 13.8536 9.23828C5.50338 12.0852 0.0106159 17.2922 3.25388e-05 22.3722C-0.0105508 26.1399 2.5612 29.2832 6.78396 30.659C8.76305 31.3046 9.84255 31.4527 12.7001 31.4527C14.8908 31.4527 15.547 31.4104 16.9122 31.2093C17.8118 31.0717 18.5526 30.9765 18.5738 30.9977C18.5844 31.0082 18.2775 31.6009 17.8753 32.2994C15.5046 36.4058 13.3986 41.3482 12.4884 44.9465C11.8322 47.5394 11.7052 48.5131 11.6946 50.979C11.6946 53.4344 11.7793 54.08 12.2873 55.6569C13.4515 59.2446 16.1608 61.8376 19.738 62.7795C24.4264 64.0283 30.2473 62.7583 35.3908 59.3611C36.9994 58.3027 38.4388 57.1068 40.0157 55.5087L41.4656 54.0482L41.5291 54.4504C41.6984 55.4981 42.7885 57.1174 43.7304 57.71C44.757 58.3662 46.2387 58.5567 47.7627 58.2286C48.747 58.017 50.4509 57.1809 51.541 56.3765C52.684 55.5299 54.3985 53.7942 55.5626 52.3231L56.4622 51.1801L56.5998 51.8469C57.0549 54.1223 58.8752 55.3711 61.2141 55.0007C62.6323 54.7785 64.2092 54.0588 65.8179 52.9052C66.7492 52.249 69.1411 50.0054 69.7867 49.201L70.0618 48.8412L70.7286 49.4656C73.4167 51.9845 78.4015 52.122 82.9206 49.8043C87.1857 47.6241 90.3395 43.6448 91.546 38.914C92.1493 36.5539 92.2234 35.6438 92.2339 30.2357C92.2445 27.4734 92.2869 24.6371 92.3292 23.928L92.4139 22.658L94.213 20.6471C95.1973 19.5465 96.1921 18.3717 96.4144 18.0225C97.2293 16.8371 97.3351 15.7365 96.7213 15.1438C96.4355 14.8686 96.3191 14.8369 95.5783 14.8051C94.0754 14.731 92.1704 15.4084 91.0698 16.4032C90.0538 17.3134 89.5246 18.5093 89.0378 20.9858L88.7414 22.4569L86.4131 24.6265C85.1325 25.8118 82.8888 27.9814 81.4178 29.4419C79.3328 31.5057 78.6978 32.2042 78.5179 32.6063C78.2428 33.2413 78.3063 33.6858 78.7402 34.0986C79.0048 34.3526 79.1741 34.4161 79.6927 34.4478C80.0525 34.4796 80.4547 34.4373 80.6346 34.3632C80.8039 34.2997 82.5184 32.6275 84.4552 30.6484C86.3814 28.6799 88.0006 27.0606 88.0429 27.0606C88.0853 27.0606 88.0641 27.5687 87.99 28.1931C87.9159 28.8281 87.7784 30.4579 87.6937 31.8232C87.4291 35.8131 87.3127 36.882 87.0481 38.2367C85.9369 43.7612 82.656 47.7511 78.5603 48.5449C77.6183 48.7354 76.1896 48.6295 75.4064 48.3332C74.5386 47.9945 73.7342 47.1902 73.512 46.4282L73.3427 45.8779L74.1999 44.4914C75.9779 41.6445 76.4753 40.2369 75.9991 39.4855C75.3641 38.4695 74.0623 38.1308 72.5595 38.5965C70.0936 39.3585 68.432 42.0149 68.6331 44.8724L68.6966 45.8038L68.0298 46.6187C67.0667 47.804 65.1723 49.7302 64.1351 50.5769C63.0239 51.4765 61.6375 52.1961 61.0025 52.1961C60.4627 52.1961 60.0394 51.8575 59.9441 51.3389C59.6584 49.7937 62.0079 44.4809 67.5536 34.1515C70.1571 29.3043 71.6917 26.2775 71.9139 25.5684C72.0197 25.2191 72.0727 24.8593 72.0303 24.69C71.8716 24.0656 70.8238 23.928 69.4374 24.3619C68.2097 24.7535 67.6594 25.1556 67.1408 26.087L66.7069 26.849L66.4212 26.4256C66.0719 25.8859 65.4475 25.4414 64.8231 25.2615C64.1563 25.071 62.5794 25.1768 61.6481 25.4731C57.7534 26.7008 52.8639 30.8601 48.5247 36.6386C46.7679 38.9775 46.0059 40.1946 43.233 45.0524C40.0051 50.7145 39.042 52.0691 36.502 54.5245C34.0573 56.8845 31.6443 58.4297 28.9032 59.3822C26.1409 60.3453 23.9607 60.303 21.8017 59.2658C20.9657 58.8636 20.6587 58.6414 19.9391 57.9005C19.2088 57.1703 18.976 56.8422 18.5315 55.932C17.7271 54.3022 17.452 53.1275 17.3885 50.979C17.325 48.9364 17.4837 47.5712 18.0446 45.2852C18.7961 42.2372 19.7486 39.7289 21.643 35.8978C22.8707 33.4212 24.7333 30.0134 25.0085 29.7488C25.0826 29.6853 26.1409 29.3043 27.358 28.9127C32.3004 27.3358 36.121 25.5684 41.4868 22.3722C50.4826 17.017 55.986 11.4819 57.1078 6.6771C57.3195 5.73519 57.3301 4.28527 57.1078 3.55502C56.7691 2.38026 55.9119 1.47009 54.7371 1.01501C53.9434 0.718674 52.2395 0.655174 51.0753 0.86684ZM53.1708 3.71376C53.7952 4.11593 53.7211 5.22718 52.9697 6.82527C50.5355 11.9688 42.5663 18.8162 33.9726 23.1342C31.549 24.3513 27.4532 26.087 27.3157 25.9494C27.1992 25.8224 31.6972 19.6629 33.4328 17.5991C38.7034 11.2914 44.9052 6.12677 49.4137 4.28527C51.3187 3.5021 52.5675 3.3116 53.1708 3.71376ZM62.8546 28.2883C64.1563 29.2091 63.098 33.6964 60.1876 39.4961C56.0177 47.8464 50.1122 55.0113 47.0219 55.4875C46.6303 55.551 46.5456 55.5193 46.3234 55.2759C45.1274 53.9953 46.1329 49.7196 48.9375 44.1104C52.4511 37.1043 57.7111 30.2462 60.7908 28.6799C61.8597 28.1296 62.463 28.0132 62.8546 28.2883Z" fill="#443028"/>
<path d="M122.45 12.0211C121.137 12.4444 120.576 12.8677 120.047 13.8308L119.624 14.5822L119.317 14.0742C118.735 13.1429 117.444 12.6878 115.899 12.8783C112.173 13.3546 106.733 17.535 102.087 23.4934C98.2668 28.4041 95.4198 33.8651 94.5626 37.9079C94.3298 38.9769 94.2451 41.0089 94.3827 41.7709C94.7425 43.6865 95.8749 45.1681 97.473 45.8137C98.3197 46.1524 100.066 46.1524 101.177 45.8031C103.707 45.0094 106.405 42.8186 108.903 39.506C109.146 39.1779 109.379 38.9345 109.411 38.9663C109.443 38.9874 109.506 39.252 109.549 39.5484C109.739 40.776 110.543 41.8979 111.602 42.4059C112.374 42.7763 113.856 42.8292 114.978 42.5223C118.163 41.6439 122.683 37.7492 124.461 34.3414C124.99 33.3465 125.085 32.7539 124.799 32.2564C124.588 31.8754 124.037 31.505 123.656 31.505C123.296 31.505 122.767 31.9284 122.217 32.6692C120.894 34.426 120.301 35.1351 119.169 36.3099C117.222 38.3207 115.592 39.5166 114.375 39.8341C113.285 40.1093 112.702 39.4743 112.914 38.236C113.337 35.823 115.75 30.6372 120.788 21.2921C123.254 16.7306 124.852 13.5027 124.937 12.9418C125.011 12.4867 124.99 12.4126 124.715 12.1269C124.45 11.8517 124.365 11.82 123.73 11.8306C123.349 11.8306 122.767 11.9152 122.45 12.0211ZM115.888 16.0533C116.237 16.4026 116.343 16.7836 116.333 17.6937C116.322 20.837 113.359 27.6527 109.369 33.7064C107.326 36.8073 105.802 38.7334 103.918 40.5644C102.595 41.8555 101.886 42.3953 100.934 42.8292C99.6849 43.4219 99.1981 43.2737 98.8806 42.2048C97.8858 38.7864 103.188 27.6527 109.242 20.4454C110.311 19.1648 112.173 17.3868 113.083 16.773C114.343 15.9157 115.465 15.63 115.888 16.0533Z" fill="#443028"/>
<path d="M113.644 53.5615C113.475 53.8155 113.348 54.0483 113.348 54.0907C113.348 54.1224 113.707 54.1542 114.141 54.1542H114.935V58.705V63.2559H115.411H115.888V58.1758V53.0958H114.914H113.93L113.644 53.5615Z" fill="#443028"/>
<path d="M118.533 53.5725V54.0487H120.914C122.565 54.0487 123.296 54.0805 123.296 54.1651C123.296 54.2286 122.248 56.2818 120.967 58.716C119.687 61.1607 118.639 63.1822 118.639 63.2139C118.639 63.2457 118.882 63.2562 119.179 63.2351L119.708 63.2033L121.348 60.0812C122.259 58.3667 123.444 56.0913 123.994 55.0224L125 53.0962H121.772H118.533V53.5725Z" fill="#443028"/>
<path d="M91.2285 58.2288V63.2559H91.7577H92.2869L92.308 59.4776L92.3398 55.7099L95.5994 59.4564C97.3986 61.5202 98.9332 63.2135 99.0179 63.2347C99.1449 63.2664 99.166 62.5044 99.166 58.2393V53.2017H98.6898H98.2135V56.9588C98.2135 59.0225 98.1712 60.7159 98.1289 60.7159C98.0759 60.7159 96.5731 59.0225 94.7739 56.9588C92.9854 54.895 91.4508 53.2017 91.3767 53.2017C91.2497 53.2017 91.2285 54.0483 91.2285 58.2288Z" fill="#443028"/>
<path d="M103.473 53.3599C101.97 53.9314 100.933 55.6353 101.113 57.2122C101.261 58.4822 102.129 59.6993 103.272 60.2179C103.674 60.3978 103.971 60.4507 104.775 60.4401C105.653 60.4401 105.854 60.4084 106.384 60.1544C107.146 59.7839 107.865 58.9902 108.162 58.1964C108.352 57.699 108.384 57.4239 108.352 56.6407C108.299 55.5506 108.098 55.0638 107.389 54.2912C106.69 53.5292 106.077 53.2752 104.881 53.2329C104.193 53.2117 103.748 53.254 103.473 53.3599ZM105.865 54.3124C106.299 54.5134 106.955 55.1379 107.167 55.54C107.855 56.8735 107.357 58.5457 106.055 59.2759C104.574 60.1015 102.658 59.3289 102.182 57.7096C101.981 57.0429 101.981 56.6619 102.193 55.9634C102.394 55.2649 103.145 54.4711 103.833 54.2277C104.394 54.016 105.325 54.0584 105.865 54.3124Z" fill="#443028"/>
<path d="M101.071 62.7796V63.2559H104.723H108.374V62.7796V62.3034H104.723H101.071V62.7796Z" fill="#443028"/>
</g>
<defs>
<clipPath id="clip0_7_4">
<rect width="440" height="6282" fill="white" transform="translate(-40 -19)"/>
</clipPath>
</defs>
</svg>
