<svg width="287" height="287" viewBox="0 0 287 287" fill="none" xmlns="http://www.w3.org/2000/svg">
<g clip-path="url(#clip0_315_863)">
<mask id="mask0_315_863" style="mask-type:luminance" maskUnits="userSpaceOnUse" x="0" y="0" width="287" height="287">
<path d="M0 287H287V0H0V287Z" fill="white"/>
</mask>
<g mask="url(#mask0_315_863)">
<path d="M206.758 151.682C209.773 151.595 212.977 151.841 214.648 152.955C216.321 154.064 218.336 157.353 220.367 160.001C229.874 172.376 246.733 177.551 262.005 171.606C280.548 164.391 289.723 143.505 282.504 124.968C275.286 106.426 254.409 97.2462 235.866 104.465C226.699 108.035 219.828 114.949 216.09 123.269C215.461 124.674 215.113 125.464 214.047 126.51C212.977 127.557 210.801 128.222 209.059 128.581C198.825 130.694 190.228 130.768 183.033 129.679L181.767 133.1C181.361 134.237 178.881 141.213 175.217 151.478C183.712 151.392 195.946 151.994 206.758 151.682ZM241.873 119.886C251.892 115.988 263.181 120.949 267.083 130.972C270.981 140.994 266.021 152.279 256.002 156.181C245.979 160.087 234.694 155.122 230.788 145.104C226.89 135.081 231.85 123.792 241.873 119.886Z" fill="#443028"/>
<path d="M2.54148 192.173C4.65865 197.618 11.1661 198.22 27.2902 194.028C36.0241 191.759 76.3931 179.619 111.61 168.955C115.082 150.894 118.219 134.684 120.055 125.215C84.2441 142.41 29.2981 168.873 19.5255 174.064C4.80665 181.885 0.416451 186.728 2.54148 192.173Z" fill="#443028"/>
<path d="M116.794 66.7339C119.638 68.4794 123.118 70.1397 124.4 71.687C125.677 73.2381 126.255 76.3976 126.481 79.4056C127.599 94.1466 130.7 111.388 130.314 118.348C130.314 118.348 105.549 245.826 103.061 262.301C100.573 278.781 101.85 285.187 107.482 286.73C113.119 288.269 117.478 283.401 123.724 267.953C129.965 252.501 173.514 130.164 173.514 130.164C173.514 130.164 144.828 118.786 149.222 74.7099C149.398 72.9442 149.831 70.7099 150.761 69.5383C151.69 68.3621 152.437 67.9367 153.768 67.1631C161.655 62.5852 167.815 55.0268 170.408 45.5357C175.658 26.3453 164.354 6.5339 145.167 1.28382C125.973 -3.96178 106.162 7.34221 100.916 26.5325C96.5927 42.3405 103.499 58.5702 116.794 66.7339ZM150.371 129.89C154.004 130.882 156.144 134.628 155.148 138.261C154.156 141.893 150.41 144.034 146.777 143.042C143.145 142.046 141.008 138.296 142 134.667C142.992 131.035 146.742 128.898 150.371 129.89ZM116.881 30.8997C119.716 20.5257 130.427 14.4163 140.801 17.2521C151.176 20.0879 157.285 30.7983 154.449 41.1729C151.613 51.5473 140.899 57.6565 130.528 54.8165C120.154 51.9842 114.045 41.2704 116.881 30.8997Z" fill="#443028"/>
</g>
</g>
<defs>
<clipPath id="clip0_315_863">
<rect width="287" height="287" fill="white"/>
</clipPath>
</defs>
</svg>
